<svg width="24" height="24" viewBox="0 0 24 24" fill="none" xmlns="http://www.w3.org/2000/svg">
<path fill-rule="evenodd" clip-rule="evenodd" d="M2.18809 0H21.7091C22.9725 0 24 1.02308 24 2.28112V17.4224C24 18.6804 22.9725 19.7035 21.7091 19.7035H12.8145L5.62445 24V19.7035H2.18809C0.924649 19.7035 0 18.6804 0 17.4224V2.28112C0 1.02308 0.924649 0 2.18809 0ZM12.1799 17.4224H21.4545V2.28112H2.54548V17.4224H7.91536V19.9693L12.1799 17.4224ZM12.4261 7.4294L14.0266 9.02986L9.60046 13.4546H8V11.853L12.4261 7.4294ZM16 7.05619L14.4007 5.45459L13.18 6.67611L14.7805 8.27657L16 7.05619Z" fill="#0B2E59"/>
</svg>
