<svg width="24" height="24" viewBox="0 0 24 24" fill="none" xmlns="http://www.w3.org/2000/svg">
<path fill-rule="evenodd" clip-rule="evenodd" d="M17.4238 0C18.0433 0 18.5454 0.50373 18.5454 1.12511V4.38258C18.5454 5.00396 18.0433 5.50769 17.4238 5.50769H13.8796V7.96579C13.8796 7.97724 13.8794 7.98864 13.8791 8H16.0165C20.4257 8 24 11.5817 24 16C24 20.4183 20.4257 24 16.0165 24H7.98347C3.57432 24 0 20.4183 0 16C0 11.5817 3.57432 8 7.98347 8H11.6369C11.6365 7.98864 11.6364 7.97724 11.6364 7.96579V4.38258C11.6364 3.7612 12.1385 3.25747 12.758 3.25747H16.3022V1.12511C16.3022 0.50373 16.8044 0 17.4238 0ZM7.98347 10.2857C4.83408 10.2857 2.64463 12.8441 2.64463 16C2.64463 19.1559 4.83408 21.7143 7.98347 21.7143H16.0165C19.1659 21.7143 21.3554 19.1559 21.3554 16C21.3554 12.8441 19.1659 10.2857 16.0165 10.2857H7.98347ZM7.27271 12.8182C7.82499 12.8182 8.27271 13.266 8.27271 13.8182V15H9.81821C10.3705 15 10.8182 15.4477 10.8182 16C10.8182 16.5523 10.3705 17 9.81821 17H8.27271V18.5455C8.27271 19.0978 7.82499 19.5455 7.27271 19.5455C6.72042 19.5455 6.27271 19.0978 6.27271 18.5455V17H5.09094C4.53866 17 4.09094 16.5523 4.09094 16C4.09094 15.4477 4.53866 15 5.09094 15H6.27271V13.8182C6.27271 13.266 6.72042 12.8182 7.27271 12.8182ZM16.5454 12.8182C14.6877 12.8182 13.1818 14.3242 13.1818 16.1819C13.1818 18.0395 14.6877 19.5455 16.5454 19.5455C18.4031 19.5455 19.909 18.0395 19.909 16.1819C19.909 14.3242 18.4031 12.8182 16.5454 12.8182ZM15.1818 16.1819C15.1818 15.4288 15.7923 14.8182 16.5454 14.8182C17.2985 14.8182 17.909 15.4288 17.909 16.1819C17.909 16.935 17.2985 17.5455 16.5454 17.5455C15.7923 17.5455 15.1818 16.935 15.1818 16.1819Z" fill="#0B2E59"/>
</svg>
