<svg width="27" height="27" viewBox="0 0 27 27" fill="none" xmlns="http://www.w3.org/2000/svg">
<path d="M13.125 2.6875C10.2242 2.6875 7.4422 3.83984 5.39102 5.89102C3.33984 7.9422 2.1875 10.7242 2.1875 13.625V15.8125H4.375C4.95516 15.8125 5.51156 16.043 5.9218 16.4532C6.33203 16.8634 6.5625 17.4198 6.5625 18V24.5625C6.5625 25.1427 6.33203 25.6991 5.9218 26.1093C5.51156 26.5195 4.95516 26.75 4.375 26.75H2.1875C1.60734 26.75 1.05094 26.5195 0.640704 26.1093C0.230468 25.6991 0 25.1427 0 24.5625V13.625C-2.56836e-08 11.9014 0.339488 10.1947 0.999081 8.60228C1.65867 7.00988 2.62545 5.56299 3.84422 4.34422C5.06299 3.12545 6.50988 2.15867 8.10228 1.49908C9.69468 0.839488 11.4014 0.5 13.125 0.5C14.8486 0.5 16.5553 0.839488 18.1477 1.49908C19.7401 2.15867 21.187 3.12545 22.4058 4.34422C23.6245 5.56299 24.5913 7.00988 25.2509 8.60228C25.9105 10.1947 26.25 11.9014 26.25 13.625V24.5625C26.25 25.1427 26.0195 25.6991 25.6093 26.1093C25.1991 26.5195 24.6427 26.75 24.0625 26.75H21.875C21.2948 26.75 20.7384 26.5195 20.3282 26.1093C19.918 25.6991 19.6875 25.1427 19.6875 24.5625V18C19.6875 17.4198 19.918 16.8634 20.3282 16.4532C20.7384 16.043 21.2948 15.8125 21.875 15.8125H24.0625V13.625C24.0625 10.7242 22.9102 7.9422 20.859 5.89102C18.8078 3.83984 16.0258 2.6875 13.125 2.6875Z" fill="white"/>
</svg>
