<svg width="40" height="46" viewBox="0 0 40 46" fill="none" xmlns="http://www.w3.org/2000/svg">
<rect x="1" y="1" width="38" height="38" rx="19" stroke="#00B5E7" stroke-width="2"/>
<mask id="mask0_1201_2613" style="mask-type:alpha" maskUnits="userSpaceOnUse" x="0" y="0" width="40" height="40">
<rect width="40" height="40" rx="20" fill="#009AD1"/>
</mask>
<g mask="url(#mask0_1201_2613)">
<path fill-rule="evenodd" clip-rule="evenodd" d="M17.2002 6.39844C18.3047 6.39844 19.2002 7.22679 19.2002 8.24861V12.4148C19.3664 12.4037 19.5333 12.3981 19.7006 12.3981C19.8678 12.3984 20.0344 12.4042 20.2002 12.4156V8.24861C20.2002 7.22679 21.0962 6.39844 22.1995 6.39844C23.3044 6.39844 24.2002 7.22679 24.2002 8.24861V13.9045C24.4814 14.1156 24.7489 14.3474 25.0006 14.5987C26.406 16.0045 27.197 17.9101 27.2002 19.8981C27.2002 21.3814 26.7609 22.8315 25.9365 24.0648C25.112 25.2982 23.9406 26.2595 22.5703 26.8271C21.1999 27.3948 19.6926 27.5433 18.2379 27.254C16.7832 26.9645 15.4463 26.2502 14.3974 25.2014C13.3486 24.1525 12.6339 22.8161 12.3443 21.3612C12.0546 19.9063 12.2042 18.3984 12.7708 17.0279C13.2867 15.7836 14.1267 14.7034 15.2002 13.8983V8.24861C15.2002 7.22679 16.0958 6.39844 17.2002 6.39844ZM14.1603 29.3988H24.2401C28.085 29.3988 31.2002 32.0852 31.2002 35.3988V42.3988H7.2002V35.3988C7.2002 32.0852 10.3169 29.3988 14.1603 29.3988Z" fill="#00B5E7"/>
</g>
</svg>
