<svg width="80" height="55" viewBox="0 0 80 55" fill="none" xmlns="http://www.w3.org/2000/svg">
<path d="M80.0051 29.7982C80.0079 27.9676 79.5253 26.1671 78.6038 24.5711C77.6824 22.9751 76.3533 21.6375 74.7451 20.6876C74.7625 20.4458 74.7824 20.204 74.7824 19.9405C74.7859 17.2777 73.7662 14.7099 71.9236 12.7415C70.081 10.773 67.5487 9.54606 64.824 9.30169C64.4809 6.72756 63.1857 4.3633 61.1808 2.65125C59.1759 0.939201 56.5987 -0.00332406 53.9314 2.07939e-05H46.2142C43.5553 -0.00508656 40.9853 0.930807 38.983 2.63327C36.9808 4.33573 35.683 6.68859 35.3315 9.25333H31.376C28.6106 9.2462 25.9448 10.2576 23.9141 12.0844C21.8835 13.9112 20.6383 16.418 20.4287 19.1014H10.9871C8.30615 19.0802 5.7098 20.0142 3.68752 21.7272C1.66525 23.4402 0.356757 25.8139 0.00872197 28.4009C-0.339313 30.9879 0.297148 33.6094 1.79813 35.7713C3.2991 37.9332 5.5609 39.4861 8.15715 40.1372C7.45592 41.765 7.17834 43.5361 7.34902 45.2933C7.51971 47.0505 8.13338 48.7396 9.13562 50.2107C10.1379 51.6818 11.4977 52.8895 13.0945 53.7267C14.6913 54.5638 16.4757 55.0045 18.2895 55.0097H60.8362C62.6332 55.0074 64.4022 54.5765 65.9883 53.7547C67.5745 52.9329 68.9296 51.7453 69.9348 50.2958C70.9401 48.8463 71.5649 47.1791 71.7546 45.4402C71.9444 43.7012 71.6932 41.9435 71.0232 40.3209C73.5495 39.868 75.8323 38.5666 77.4737 36.6436C79.1151 34.7206 80.0109 32.2981 80.0051 29.7982V29.7982ZM47.3049 4.71251C51.7772 2.72983 57.0372 5.74254 56.6272 11.1393C56.2173 16.536 47.5807 16.1274 45.357 15.4528C40.748 14.0529 40.2212 7.85578 47.3049 4.71251ZM22.1431 44.591L13.5065 45.5219L12.3338 31.3167L7.76209 31.6915L7.29995 24.4668L24.5979 23.2723L25.157 30.4656L20.9704 30.7654L22.1431 44.591ZM29.8454 12.5465C32.2034 11.0136 35.3514 12.6674 35.4905 16.1734C35.6297 19.6793 30.7871 19.9066 29.5001 19.5995C26.8192 18.9588 26.1036 14.991 29.8405 12.5465H29.8454ZM28.1261 22.5421L36.3577 21.7805L36.9589 33.6983L28.6454 35.1902L28.1261 22.5421ZM59.8001 40.2702C59.4569 42.0417 58.7413 43.7251 57.6981 45.2148C56.6278 46.7026 55.2448 47.9521 53.6407 48.8803C51.8651 49.8968 49.9029 50.567 47.864 50.8533C46.9092 51.0029 45.9438 51.0788 44.9768 51.0806C44.0059 51.0827 43.0368 50.9969 42.0822 50.8243C40.2768 50.5254 38.5613 49.8425 37.0582 48.8244C35.555 47.8063 34.3012 46.478 33.386 44.9343C32.3485 43.181 31.6654 41.2506 31.3735 39.2474L31.1598 37.9393L39.3591 36.6772L39.5703 37.9853C40.1045 41.2809 42.3034 43.2466 45.4688 43.2466C45.8583 43.2472 46.2472 43.2164 46.6316 43.1547C47.5718 43.0328 48.4766 42.7251 49.2901 42.2504C49.949 41.8552 50.5044 41.3163 50.9126 40.6764C51.3222 40.0194 51.5863 39.2865 51.6878 38.5244C51.8087 37.6162 51.7911 36.6955 51.6356 35.7922L50.0231 26.2995L40.4647 27.6681L39.5852 19.5608H57.7428L59.8374 34.5518C60.1662 36.4457 60.1519 38.381 59.7951 40.2702H59.8001ZM70.3598 37.4243H64.0488L62.3096 22.2254H70.3598V37.4243ZM70.4716 17.7716C69.843 20.8036 64.9731 19.9767 63.7631 19.4375C61.2437 18.3253 61.4027 14.7686 65.6514 13.4774C68.3273 12.6602 71.0952 14.7347 70.4666 17.7716H70.4716Z" fill="url(#paint0_linear_1712_1632)"/>
<defs>
<linearGradient id="paint0_linear_1712_1632" x1="39.9604" y1="0" x2="39.9604" y2="55.0097" gradientUnits="userSpaceOnUse">
<stop stop-color="#00ECFF"/>
<stop offset="1" stop-color="#00B8ED"/>
</linearGradient>
</defs>
</svg>
