<svg width="24" height="24" viewBox="0 0 24 24" fill="none" xmlns="http://www.w3.org/2000/svg">
<path d="M6.77966 8.57142C5.84216 8.57142 5.08474 7.80535 5.08474 6.85714C5.08474 5.90893 5.84216 5.14285 6.77966 5.14285C7.71716 5.14285 8.47457 5.90893 8.47457 6.85714C8.47457 7.80535 7.71716 8.57142 6.77966 8.57142ZM10.5932 6.85714C10.5932 6.14464 11.16 5.57143 11.8644 5.57143H18.6667C19.3711 5.57143 19.9378 6.14464 19.9378 6.85714C19.9378 7.56964 19.3711 8.14285 18.6667 8.14285H11.8644C11.16 8.14285 10.5932 7.56964 10.5932 6.85714ZM10.5932 12C10.5932 11.2875 11.16 10.7143 11.8644 10.7143H18.6667C19.3711 10.7143 19.9378 11.2875 19.9378 12C19.9378 12.7125 19.3711 13.2857 18.6667 13.2857H11.8644C11.16 13.2857 10.5932 12.7125 10.5932 12ZM10.5932 17.1428C10.5932 16.4304 11.16 15.8571 11.8644 15.8571H18.6667C19.3711 15.8571 19.9378 16.4304 19.9378 17.1428C19.9378 17.8553 19.3711 18.4286 18.6667 18.4286H11.8644C11.16 18.4286 10.5932 17.8553 10.5932 17.1428ZM6.77966 10.2857C7.71716 10.2857 8.47457 11.0518 8.47457 12C8.47457 12.9482 7.71716 13.7143 6.77966 13.7143C5.84216 13.7143 5.08474 12.9482 5.08474 12C5.08474 11.0518 5.84216 10.2857 6.77966 10.2857ZM6.77966 18.8571C5.84216 18.8571 5.08474 18.0911 5.08474 17.1428C5.08474 16.1946 5.84216 15.4286 6.77966 15.4286C7.71716 15.4286 8.47457 16.1946 8.47457 17.1428C8.47457 18.0911 7.71716 18.8571 6.77966 18.8571ZM0 3.42857C0 1.53482 1.51748 0 3.38983 0H20.6102C22.4799 0 24 1.53482 24 3.42857V20.5714C24 22.4625 22.4799 24 20.6102 24H3.38983C1.51748 24 0 22.4625 0 20.5714V3.42857ZM2.54237 3.42857V20.5714C2.54237 21.0428 2.92161 21.4286 3.38983 21.4286H20.6102C21.0763 21.4286 21.4576 21.0428 21.4576 20.5714V3.42857C21.4576 2.955 21.0763 2.57143 20.6102 2.57143H3.38983C2.92161 2.57143 2.54237 2.955 2.54237 3.42857Z" fill="#0B2E59"/>
</svg>
