<svg width="27" height="28" viewBox="0 0 27 28" fill="none" xmlns="http://www.w3.org/2000/svg">
<g clip-path="url(#clip0_1769_1226)">
<path d="M26 14C26 17.3152 24.683 20.4946 22.3388 22.8388C19.9946 25.183 16.8152 26.5 13.5 26.5C10.1848 26.5 7.00537 25.183 4.66117 22.8388C2.31696 20.4946 1 17.3152 1 14C1 10.6848 2.31696 7.50537 4.66117 5.16117C7.00537 2.81696 10.1848 1.5 13.5 1.5C16.8152 1.5 19.9946 2.81696 22.3388 5.16117C24.683 7.50537 26 10.6848 26 14Z" stroke="white" stroke-width="2"/>
<path d="M11.029 8.93966C11.1835 8.95072 11.332 9.00409 11.4581 9.09392L17.3644 13.3127C17.4738 13.3907 17.5629 13.4938 17.6244 13.6132C17.6859 13.7327 17.718 13.8651 17.718 13.9995C17.718 14.1338 17.6859 14.2663 17.6244 14.3857C17.5629 14.5052 17.4738 14.6082 17.3644 14.6863L11.4581 18.905C11.332 18.9949 11.1835 19.0482 11.029 19.0593C10.8745 19.0704 10.72 19.0387 10.5823 18.9678C10.4446 18.8968 10.3291 18.7894 10.2485 18.6572C10.1678 18.525 10.1251 18.3731 10.125 18.2182V9.78073C10.1251 9.62586 10.1678 9.47399 10.2485 9.34179C10.3291 9.20958 10.4446 9.10212 10.5823 9.03119C10.72 8.96026 10.8745 8.92859 11.029 8.93966Z" fill="white"/>
</g>
<defs>
<clipPath id="clip0_1769_1226">
<rect width="27" height="27" fill="white" transform="translate(0 0.5)"/>
</clipPath>
</defs>
</svg>
