<svg width="28" height="28" viewBox="0 0 28 28" fill="none" xmlns="http://www.w3.org/2000/svg">
<g clip-path="url(#clip0_1769_1250)">
<path d="M16.8978 6.33908L16.8956 8.68668C17.7304 8.34446 18.6256 8.17354 19.5278 8.18407C20.5381 8.18494 21.3992 8.28098 22.1596 8.42296L22.1624 6.15775C21.2933 6.00637 20.4128 5.92989 19.5307 5.92915C18.637 5.92734 17.7486 6.06566 16.8978 6.33908ZM16.8904 11.2269L16.8881 13.5745C17.723 13.2323 18.6182 13.0613 19.5204 13.0719C20.5307 13.0727 21.3918 13.1688 22.1522 13.3108L22.155 11.0456C21.2859 10.8942 20.4054 10.8177 19.5232 10.817C18.6295 10.8141 17.7409 10.9524 16.8904 11.2269ZM16.885 16.1137L16.8827 18.4613C17.7176 18.119 18.6128 17.9481 19.515 17.9586C20.5253 17.9595 21.3864 18.0555 22.1468 18.1975L22.1496 15.9323C21.2805 15.7809 20.4 15.7045 19.5179 15.7037C18.6241 15.7008 17.7355 15.8392 16.885 16.1137ZM4.85586 15.908L4.85308 18.1732C5.721 18.0149 6.60176 17.9377 7.48398 17.9425C8.38612 17.935 9.28058 18.1087 10.1144 18.4533L10.1166 16.1057C9.26726 15.8298 8.37989 15.6887 7.48682 15.6875C6.60513 15.6852 5.72487 15.7589 4.85586 15.908ZM4.86868 6.1334L4.8659 8.39862C5.73393 8.24111 6.61461 8.16388 7.4968 8.1679C8.39894 8.16048 9.2934 8.33417 10.1272 8.67869L10.1315 6.33004C9.28134 6.05465 8.39332 5.91392 7.49965 5.91298C6.61795 5.91059 5.73769 5.98434 4.86868 6.1334ZM4.86124 11.0212L4.85846 13.2864C5.72639 13.1282 6.60714 13.0509 7.48936 13.0557C8.39151 13.0483 9.28596 13.222 10.1198 13.5665L10.1241 11.2178C9.2747 10.942 8.38732 10.8009 7.49426 10.7997C6.61185 10.7977 5.73091 10.8718 4.86124 11.0212ZM19.5366 0.715399C17.2908 0.701389 15.1293 1.57003 13.5178 3.13422C11.9107 1.56628 9.75185 0.692533 7.5066 0.70128C3.18677 0.695943 0.0354658 2.76258 0.0354658 2.76258L0.0151867 24.3158C0.0147099 24.9785 0.774187 25.3806 1.30206 24.9808C2.43775 24.1199 4.39976 23.1518 7.47652 23.1557C10.4179 23.1599 12.0452 24.7393 12.8423 25.897C13.1583 26.3564 13.8368 26.3244 14.1573 25.8672C14.9652 24.7143 16.592 23.1675 19.5076 23.1719C22.5879 23.1752 24.5477 24.1506 25.6819 25.0157C26.2101 25.4177 26.9651 25.0201 26.9671 24.3578L27.0018 2.7973C27.0018 2.7973 23.8559 0.722285 19.5366 0.715399ZM12.3664 22.0916C10.9333 21.0946 9.2276 20.5642 7.48194 20.5728C5.34031 20.5692 3.70995 20.9672 2.59463 21.3825L2.61458 4.2912C3.34963 3.9179 4.97847 3.27791 7.50373 3.28164C9.88172 3.28525 11.4499 4.45822 12.3886 5.52339L12.3664 22.0916ZM24.3966 21.4121C23.2812 20.9932 21.6515 20.5915 19.5094 20.5895C17.7639 20.5758 16.0568 21.1014 14.6213 22.0944L14.6435 5.52624C15.5833 4.46267 17.1537 3.29318 19.5332 3.2973C22.0569 3.30052 23.6846 3.94479 24.4186 4.31969L24.3966 21.4121Z" fill="white"/>
</g>
<defs>
<clipPath id="clip0_1769_1250">
<rect width="27" height="27" fill="white" transform="translate(0.5 0.5)"/>
</clipPath>
</defs>
</svg>
