<svg width="17" height="17" viewBox="0 0 17 17" fill="none" xmlns="http://www.w3.org/2000/svg">
<path d="M8.5 9.97238e-07C6.81868 1.19438e-06 5.17513 0.498621 3.77723 1.4328C2.37932 2.36697 1.28986 3.69473 0.646634 5.24814C0.00341001 6.80155 -0.164678 8.51083 0.16363 10.1598C0.491938 11.8087 1.30189 13.3233 2.49105 14.5119C3.68021 15.7004 5.19515 16.5097 6.84426 16.8372C8.49337 17.1647 10.2026 16.9958 11.7557 16.3518C13.3088 15.7078 14.636 14.6177 15.5695 13.2193C16.503 11.821 17.0008 10.1772 17 8.49588C17 7.37984 16.7801 6.27473 16.3529 5.2437C15.9257 4.21266 15.2995 3.2759 14.5102 2.48693C13.7208 1.69796 12.7837 1.07225 11.7525 0.64553C10.7213 0.218814 9.61604 -0.000539721 8.5 9.97238e-07ZM13.9993 7.1046L11.4925 9.54552L12.0852 12.999C12.0945 13.0589 12.0872 13.1201 12.0639 13.176C12.0407 13.2319 12.0025 13.2804 11.9535 13.316C11.9043 13.3527 11.8455 13.3746 11.7842 13.379C11.723 13.3834 11.6617 13.3701 11.6077 13.3407L8.50823 11.7148L5.41283 13.3407C5.36656 13.3675 5.31403 13.3817 5.26053 13.3818C5.19074 13.3807 5.12308 13.3576 5.06707 13.316C5.01738 13.281 4.97862 13.2327 4.9553 13.1766C4.93199 13.1205 4.92507 13.0589 4.93535 12.999L5.52809 9.54552L3.01308 7.1046C2.96965 7.06173 2.93898 7.00764 2.92451 6.94836C2.91003 6.88907 2.91231 6.82694 2.9311 6.76888C2.94988 6.71081 2.98443 6.65912 3.03089 6.61955C3.07734 6.57998 3.13388 6.5541 3.19419 6.54479L6.66005 6.04261L8.20775 2.90194C8.23514 2.84736 8.27717 2.80147 8.32915 2.7694C8.38112 2.73733 8.44099 2.72035 8.50206 2.72035C8.56313 2.72035 8.623 2.73733 8.67497 2.7694C8.72694 2.80147 8.76897 2.84736 8.79637 2.90194L10.3441 6.04261L13.8099 6.54479C13.8704 6.55296 13.9273 6.57821 13.974 6.61758C14.0207 6.65695 14.0551 6.70881 14.0734 6.76707C14.0935 6.82467 14.0972 6.88673 14.0842 6.94633C14.0711 7.00593 14.0417 7.06073 13.9993 7.1046Z" fill="#00B5E7"/>
</svg>
