<svg width="50" height="50" viewBox="0 0 50 50" fill="none" xmlns="http://www.w3.org/2000/svg">
<path fill-rule="evenodd" clip-rule="evenodd" d="M25 2C20.451 2 16.0042 3.34893 12.2219 5.8762C8.43956 8.40347 5.4916 11.9956 3.75078 16.1983C2.00997 20.401 1.55449 25.0255 2.44195 29.4871C3.32941 33.9486 5.51995 38.0468 8.73655 41.2634C11.9532 44.4801 16.0514 46.6706 20.5129 47.5581C24.9745 48.4455 29.599 47.99 33.8017 46.2492C38.0044 44.5084 41.5965 41.5604 44.1238 37.7781C46.6511 33.9958 48 29.549 48 25C48 18.9 45.5768 13.0499 41.2635 8.73654C36.9501 4.42321 31.1 2 25 2ZM11.1108 4.21326C15.222 1.46622 20.0555 0 25 0C31.6304 0 37.9893 2.63392 42.6777 7.32233C47.3661 12.0107 50 18.3696 50 25C50 29.9445 48.5338 34.778 45.7867 38.8893C43.0397 43.0005 39.1352 46.2048 34.5671 48.097C29.9989 49.9892 24.9723 50.4843 20.1227 49.5196C15.2732 48.555 10.8187 46.174 7.32234 42.6777C3.82603 39.1813 1.44501 34.7268 0.480379 29.8773C-0.484251 25.0277 0.0108321 20.0011 1.90302 15.4329C3.79521 10.8648 6.99953 6.96029 11.1108 4.21326Z" fill="#00B5E7"/>
<path d="M11.3269 23.8485C11.5287 23.4133 12.022 23.1972 12.4256 23.0291C19.7441 19.9812 27.0731 16.963 34.4001 13.9399C34.5364 13.8834 34.6766 13.8347 34.8188 13.7986C35.6279 13.5931 36.2358 14.0508 36.2496 14.9507C36.2574 15.4691 36.1552 15.9968 36.0543 16.5096C34.8574 22.5876 33.6513 28.6643 32.4452 34.7409C32.4046 34.9458 32.3502 35.1506 32.2801 35.3456C31.9748 36.1925 31.4238 36.4503 30.6442 36.095C30.4077 35.9869 30.1863 35.828 29.978 35.6641C28.1875 34.2564 26.4009 32.8423 24.5724 31.3978C24.0739 31.9099 23.5819 32.415 23.0899 32.92C22.6057 33.4173 22.1393 33.9378 21.6289 34.4012C21.4926 34.5248 21.3321 34.618 21.1494 34.7148C20.9181 34.837 20.6501 34.6442 20.6665 34.3666C20.7255 33.3897 20.7766 32.523 20.8316 31.6571C20.8873 30.7805 20.9292 29.9018 21.0196 29.0288C21.0452 28.7787 21.1625 28.4806 21.3308 28.3161C24.6216 25.1086 27.9267 21.918 31.226 18.7211C31.4697 18.4852 31.6918 18.2239 31.9742 17.9208C31.4874 17.6623 31.1841 17.87 30.886 18.0713C28.0669 19.9713 25.2499 21.8728 22.4321 23.775C20.8998 24.8098 19.3674 25.8446 17.7997 26.9034C15.848 26.2429 13.8754 25.5861 11.9133 24.8967C11.6951 24.8204 11.4271 24.6975 11.323 24.4573C11.2247 24.2299 11.2247 24.0724 11.3289 23.8477L11.3269 23.8485Z" fill="#00B5E7"/>
</svg>
