<svg width="201" height="291" viewBox="0 0 201 291" fill="none" xmlns="http://www.w3.org/2000/svg">
<path d="M167.51 45.7549C149.01 45.7549 134 60.6511 134 79.0572L134 291H201V79.0572C201.021 60.6511 186.011 45.7549 167.51 45.7549Z" fill="#7429FF"/>
<path d="M100.511 0C82.0104 0 67 14.8991 67 33.3089L67 291H134V33.3089C134 14.8991 119.011 0 100.511 0Z" fill="#FFD201"/>
<path d="M33.5105 24.5117C14.9893 24.5117 0 39.4393 0 57.8375V291H67V57.8375C67 39.4393 52.0107 24.5117 33.5105 24.5117Z" fill="#FF5D57"/>
<path d="M72.73 89.293C54.2298 89.293 39.2195 104.216 39.2195 122.655V261.001H106.219V122.634C106.24 104.216 91.2301 89.293 72.73 89.293Z" fill="#00B5E7"/>
<path d="M161.781 71.9023C161.781 76.4083 158.116 80.0731 153.61 80.0731C149.104 80.0731 145.439 76.4083 145.439 71.9023H161.781Z" fill="white"/>
<path d="M191.195 71.9023C191.195 76.4083 187.53 80.0731 183.024 80.0731C178.518 80.0731 174.854 76.4083 174.854 71.9023H191.195Z" fill="white"/>
<path d="M151.159 78.4386C152.512 78.4386 153.61 77.3411 153.61 75.9874C153.61 74.6336 152.512 73.5361 151.159 73.5361C149.805 73.5361 148.707 74.6336 148.707 75.9874C148.707 77.3411 149.805 78.4386 151.159 78.4386Z" fill="#313131"/>
<path d="M178.122 76.8044C179.024 76.8044 179.756 76.0728 179.756 75.1703C179.756 74.2678 179.024 73.5361 178.122 73.5361C177.219 73.5361 176.488 74.2678 176.488 75.1703C176.488 76.0728 177.219 76.8044 178.122 76.8044Z" fill="#313131"/>
<path d="M94.7804 39.2196C94.7804 34.7136 91.1156 31.0488 86.6097 31.0488C82.1038 31.0488 78.439 34.7136 78.439 39.2196H94.7804Z" fill="white"/>
<path d="M122.561 39.2196C122.561 34.7136 118.896 31.0488 114.39 31.0488C109.884 31.0488 106.219 34.7136 106.219 39.2196H122.561Z" fill="white"/>
<path d="M116.024 50.6582C116.024 59.6884 109.079 66.9997 100.5 66.9997C91.9212 66.9997 84.9756 59.6884 84.9756 50.6582H116.024Z" fill="#C0232E"/>
<path d="M81.7074 37.5847C82.6099 37.5847 83.3415 36.8531 83.3415 35.9506C83.3415 35.048 82.6099 34.3164 81.7074 34.3164C80.8049 34.3164 80.0732 35.048 80.0732 35.9506C80.0732 36.8531 80.8049 37.5847 81.7074 37.5847Z" fill="#313131"/>
<path d="M111.122 37.5847C112.024 37.5847 112.756 36.8531 112.756 35.9506C112.756 35.048 112.024 34.3164 111.122 34.3164C110.219 34.3164 109.488 35.048 109.488 35.9506C109.488 36.8531 110.219 37.5847 111.122 37.5847Z" fill="#313131"/>
<path d="M62.9147 123.609C66.976 123.609 70.2684 120.316 70.2684 116.255C70.2684 112.194 66.976 108.901 62.9147 108.901C58.8534 108.901 55.561 112.194 55.561 116.255C55.561 120.316 58.8534 123.609 62.9147 123.609Z" fill="white"/>
<path d="M62.0975 123.609C57.5837 123.609 53.9268 119.931 53.9268 115.438C53.9268 110.925 57.6046 107.268 62.0975 107.268C66.5903 107.268 70.2682 110.945 70.2682 115.438C70.2682 119.952 66.5903 123.609 62.0975 123.609ZM62.0975 109.169C58.6495 109.169 55.8493 111.969 55.8493 115.417C55.8493 118.865 58.6495 121.666 62.0975 121.666C65.5455 121.666 68.3457 118.865 68.3457 115.417C68.3457 111.99 65.5455 109.169 62.0975 109.169Z" fill="#313131"/>
<path d="M75.1708 135.049C77.8783 135.049 80.0732 132.854 80.0732 130.147C80.0732 127.439 77.8783 125.244 75.1708 125.244C72.4632 125.244 70.2683 127.439 70.2683 130.147C70.2683 132.854 72.4632 135.049 75.1708 135.049Z" fill="#313131"/>
<path d="M87.4269 123.609C91.4882 123.609 94.7806 120.316 94.7806 116.255C94.7806 112.194 91.4882 108.901 87.4269 108.901C83.3656 108.901 80.0732 112.194 80.0732 116.255C80.0732 120.316 83.3656 123.609 87.4269 123.609Z" fill="white"/>
<path d="M86.6097 123.609C82.0959 123.609 78.439 119.931 78.439 115.438C78.439 110.925 82.1168 107.268 86.6097 107.268C91.1234 107.268 94.7803 110.945 94.7803 115.438C94.8012 119.952 91.1234 123.609 86.6097 123.609ZM86.6097 109.169C83.1617 109.169 80.3615 111.969 80.3615 115.417C80.3615 118.865 83.1617 121.666 86.6097 121.666C90.0576 121.666 92.8578 118.865 92.8578 115.417C92.8787 111.99 90.0576 109.169 86.6097 109.169Z" fill="#313131"/>
<path d="M60.4635 115.438C61.366 115.438 62.0976 114.707 62.0976 113.804C62.0976 112.902 61.366 112.17 60.4635 112.17C59.561 112.17 58.8293 112.902 58.8293 113.804C58.8293 114.707 59.561 115.438 60.4635 115.438Z" fill="#313131"/>
<path d="M87.4268 118.707C88.7806 118.707 89.878 117.61 89.878 116.256C89.878 114.902 88.7806 113.805 87.4268 113.805C86.073 113.805 84.9756 114.902 84.9756 116.256C84.9756 117.61 86.073 118.707 87.4268 118.707Z" fill="#313131"/>
<g clip-path="url(#clip0_1794_1485)">
<path fill-rule="evenodd" clip-rule="evenodd" d="M14.7072 58.8291C20.1223 58.8291 24.5121 63.2188 24.5121 68.634C24.5121 74.049 20.1223 78.4389 14.7072 78.4389C9.292 78.4389 4.90234 74.049 4.90234 68.634C4.90234 63.2188 9.292 58.8291 14.7072 58.8291Z" fill="white"/>
<path fill-rule="evenodd" clip-rule="evenodd" d="M13.0731 65.3662C15.7808 65.3662 17.9755 67.561 17.9755 70.2686C17.9755 72.9761 15.7808 75.1711 13.0731 75.1711C10.3654 75.1711 8.17065 72.9761 8.17065 70.2686C8.17065 67.561 10.3654 65.3662 13.0731 65.3662Z" fill="#313131"/>
<path fill-rule="evenodd" clip-rule="evenodd" d="M45.756 58.8291C51.1711 58.8291 55.5609 63.2188 55.5609 68.634C55.5609 74.049 51.1711 78.4389 45.756 78.4389C40.341 78.4389 35.9512 74.049 35.9512 68.634C35.9512 63.2188 40.341 58.8291 45.756 58.8291Z" fill="white"/>
<path fill-rule="evenodd" clip-rule="evenodd" d="M42.488 65.3662C45.1954 65.3662 47.3903 67.561 47.3903 70.2686C47.3903 72.9761 45.1954 75.1711 42.488 75.1711C39.7804 75.1711 37.5854 72.9761 37.5854 70.2686C37.5854 67.561 39.7804 65.3662 42.488 65.3662Z" fill="#313131"/>
</g>
<defs>
<clipPath id="clip0_1794_1485">
<rect width="50.6585" height="19.6098" fill="white" transform="translate(4.90234 58.8291)"/>
</clipPath>
</defs>
</svg>
