<svg width="40" height="46" viewBox="0 0 40 46" fill="none" xmlns="http://www.w3.org/2000/svg">
<rect width="40" height="40" rx="20" fill="#00B5E7"/>
<mask id="mask0_1712_1633" style="mask-type:alpha" maskUnits="userSpaceOnUse" x="0" y="0" width="40" height="40">
<rect width="40" height="40" rx="20" fill="#009AD1"/>
</mask>
<g mask="url(#mask0_1712_1633)">
<path fill-rule="evenodd" clip-rule="evenodd" d="M17.2 4.8C18.3044 4.8 19.2 5.62835 19.2 6.65017V10.8167C19.3662 10.8056 19.5331 10.8 19.7004 10.8C19.8676 10.8003 20.0343 10.8062 20.2 10.8175V6.65037C20.2 5.62854 21.096 4.8002 22.1993 4.8002C23.3042 4.8002 24.2 5.62854 24.2 6.65037V12.3064C24.4812 12.5176 24.7488 12.7493 25.0004 13.0007C26.4058 14.4065 27.1968 16.312 27.2 18.3C27.2 19.7834 26.7607 21.2335 25.9363 22.4667C25.1118 23.7001 23.9404 24.6615 22.5701 25.2291C21.1997 25.7967 19.6924 25.9453 18.2377 25.6559C16.783 25.3664 15.4461 24.6521 14.3972 23.6034C13.3484 22.5545 12.6337 21.2181 12.3441 19.7632C12.0544 18.3083 12.204 16.8003 12.7706 15.4299C13.2865 14.1856 14.1265 13.1054 15.2 12.3002V6.65017C15.2 5.62835 16.0955 4.8 17.2 4.8ZM24.2399 27.8C28.0848 27.8 31.2 30.4863 31.2 33.7999V40.8H7.2V33.7999C7.2 30.4863 10.3167 27.8 14.1601 27.8H24.2399Z" fill="white"/>
</g>
<path d="M6.39597 38.1539C7.12397 38.1539 7.6793 38.3126 8.06197 38.6299C8.44463 38.9472 8.63597 39.3766 8.63597 39.9179C8.63597 40.1606 8.5753 40.4172 8.45397 40.6879C8.34197 40.9492 8.11797 41.1732 7.78197 41.3599V41.3739C8.00597 41.4579 8.18797 41.5699 8.32797 41.7099C8.46797 41.8406 8.57997 41.9806 8.66397 42.1299C8.74797 42.2792 8.80397 42.4379 8.83197 42.6059C8.85997 42.7646 8.87397 42.9139 8.87397 43.0539C8.87397 43.3526 8.8133 43.6232 8.69197 43.8659C8.57997 44.0992 8.4213 44.2999 8.21597 44.4679C8.01063 44.6359 7.77263 44.7666 7.50197 44.8599C7.2313 44.9532 6.94197 44.9999 6.63397 44.9999H2.83997V38.1539H6.39597ZM4.35197 41.8919V43.9639H6.07397C6.5313 43.9639 6.8533 43.8566 7.03997 43.6419C7.23597 43.4272 7.33397 43.1846 7.33397 42.9139C7.33397 42.6432 7.2313 42.4052 7.02597 42.1999C6.82063 41.9946 6.5033 41.8919 6.07397 41.8919H4.35197ZM4.35197 39.1899V41.0239H5.98997C6.34463 41.0239 6.61997 40.9399 6.81597 40.7719C7.0213 40.5946 7.12397 40.3706 7.12397 40.0999C7.12397 39.8292 7.03063 39.6099 6.84397 39.4419C6.6573 39.2739 6.3493 39.1899 5.91997 39.1899H4.35197Z" fill="#00B5E7"/>
<path d="M16.5098 41.5839C16.5098 42.0412 16.4538 42.4846 16.3418 42.9139C16.2298 43.3339 16.0431 43.7119 15.7818 44.0479C15.5298 44.3746 15.1938 44.6359 14.7738 44.8319C14.3538 45.0279 13.8311 45.1259 13.2058 45.1259C12.6084 45.1259 12.1091 45.0326 11.7078 44.8459C11.3064 44.6592 10.9798 44.4072 10.7278 44.0899C10.4851 43.7632 10.3078 43.3852 10.1958 42.9559C10.0931 42.5266 10.0418 42.0739 10.0418 41.5979C10.0418 41.1312 10.1024 40.6832 10.2238 40.2539C10.3451 39.8152 10.5364 39.4326 10.7978 39.1059C11.0591 38.7699 11.3951 38.5039 11.8058 38.3079C12.2258 38.1026 12.7298 37.9999 13.3178 37.9999C13.9151 37.9999 14.4191 38.1026 14.8298 38.3079C15.2404 38.5039 15.5671 38.7699 15.8098 39.1059C16.0618 39.4326 16.2391 39.8152 16.3418 40.2539C16.4538 40.6832 16.5098 41.1266 16.5098 41.5839ZM14.9138 41.5979C14.9138 41.3086 14.8951 41.0192 14.8578 40.7299C14.8204 40.4312 14.7411 40.1652 14.6198 39.9319C14.5078 39.6892 14.3444 39.4932 14.1298 39.3439C13.9244 39.1946 13.6538 39.1199 13.3178 39.1199C12.9818 39.1199 12.7018 39.1946 12.4778 39.3439C12.2631 39.4839 12.0904 39.6752 11.9598 39.9179C11.8384 40.1512 11.7498 40.4172 11.6938 40.7159C11.6471 41.0052 11.6238 41.2992 11.6238 41.5979C11.6238 41.9246 11.6424 42.2326 11.6798 42.5219C11.7264 42.8112 11.8104 43.0679 11.9318 43.2919C12.0531 43.5066 12.2258 43.6792 12.4498 43.8099C12.6738 43.9406 12.9631 44.0059 13.3178 44.0059C13.6538 44.0059 13.9244 43.9359 14.1298 43.7959C14.3351 43.6559 14.4938 43.4739 14.6058 43.2499C14.7271 43.0259 14.8064 42.7692 14.8438 42.4799C14.8904 42.1906 14.9138 41.8966 14.9138 41.5979Z" fill="#00B5E7"/>
<path d="M22.457 44.9999V40.1279H22.401L21.533 41.5419C21.4024 41.7379 21.2297 42.0086 21.015 42.3539C20.8097 42.6899 20.595 43.0352 20.371 43.3899C20.147 43.7352 19.937 44.0572 19.741 44.3559C19.5544 44.6546 19.4144 44.8692 19.321 44.9999H17.879V38.1539H19.391V42.9699H19.461C19.573 42.7832 19.6804 42.6012 19.783 42.4239C19.895 42.2372 20.0117 42.0506 20.133 41.8639C20.3384 41.5466 20.553 41.2199 20.777 40.8839C21.001 40.5386 21.2157 40.2026 21.421 39.8759C21.6357 39.5399 21.8364 39.2272 22.023 38.9379C22.2097 38.6392 22.373 38.3779 22.513 38.1539H23.983V44.9999H22.457ZM20.931 37.3279C20.6697 37.3279 20.4224 37.2812 20.189 37.1879C19.965 37.0852 19.7504 36.9546 19.545 36.7959C19.349 36.6372 19.1624 36.4599 18.985 36.2639C18.817 36.0586 18.6584 35.8486 18.509 35.6339L19.251 35.0879C19.5217 35.4612 19.811 35.7506 20.119 35.9559C20.427 36.1612 20.7117 36.2639 20.973 36.2639C21.057 36.2639 21.1597 36.2592 21.281 36.2499C21.4117 36.2312 21.561 36.1892 21.729 36.1239C21.897 36.0492 22.0884 35.9419 22.303 35.8019C22.5177 35.6526 22.7604 35.4472 23.031 35.1859L23.507 35.6199C23.087 36.2546 22.6484 36.6979 22.191 36.9499C21.743 37.2019 21.323 37.3279 20.931 37.3279Z" fill="#00B5E7"/>
<path d="M27.2719 39.2459H24.8919V38.1399H31.1499V39.2459H28.7839V44.9999H27.2719V39.2459Z" fill="#00B5E7"/>
<path d="M36.6211 44.9999V40.1279H36.5651L35.6971 41.5419C35.5664 41.7379 35.3938 42.0086 35.1791 42.3539C34.9738 42.6899 34.7591 43.0352 34.5351 43.3899C34.3111 43.7352 34.1011 44.0572 33.9051 44.3559C33.7184 44.6546 33.5784 44.8692 33.4851 44.9999H32.0431V38.1539H33.5551V42.9699H33.6251C33.7371 42.7832 33.8444 42.6012 33.9471 42.4239C34.0591 42.2372 34.1758 42.0506 34.2971 41.8639C34.5024 41.5466 34.7171 41.2199 34.9411 40.8839C35.1651 40.5386 35.3798 40.2026 35.5851 39.8759C35.7998 39.5399 36.0004 39.2272 36.1871 38.9379C36.3738 38.6392 36.5371 38.3779 36.6771 38.1539H38.1471V44.9999H36.6211Z" fill="#00B5E7"/>
</svg>
