<svg width="50" height="50" viewBox="0 0 50 50" fill="none" xmlns="http://www.w3.org/2000/svg">
<path fill-rule="evenodd" clip-rule="evenodd" d="M25 2C20.451 2 16.0042 3.34893 12.2219 5.8762C8.43956 8.40347 5.4916 11.9956 3.75078 16.1983C2.00997 20.401 1.55449 25.0255 2.44195 29.4871C3.32941 33.9486 5.51995 38.0468 8.73655 41.2634C11.9532 44.4801 16.0514 46.6706 20.5129 47.5581C24.9745 48.4455 29.599 47.99 33.8017 46.2492C38.0044 44.5084 41.5965 41.5604 44.1238 37.7781C46.6511 33.9958 48 29.549 48 25C48 18.9 45.5768 13.0499 41.2635 8.73654C36.9501 4.42321 31.1 2 25 2ZM11.1108 4.21326C15.222 1.46622 20.0555 0 25 0C31.6304 0 37.9893 2.63392 42.6777 7.32233C47.3661 12.0107 50 18.3696 50 25C50 29.9445 48.5338 34.778 45.7867 38.8893C43.0397 43.0005 39.1352 46.2048 34.5671 48.097C29.9989 49.9892 24.9723 50.4843 20.1227 49.5196C15.2732 48.555 10.8187 46.174 7.32234 42.6777C3.82603 39.1813 1.44501 34.7268 0.480379 29.8773C-0.484251 25.0277 0.0108321 20.0011 1.90302 15.4329C3.79521 10.8648 6.99953 6.96029 11.1108 4.21326Z" fill="#00B5E7"/>
<path fill-rule="evenodd" clip-rule="evenodd" d="M23.9169 33.8883H25.6202C25.9197 33.8417 26.2019 33.7122 26.4378 33.5132C26.6038 33.2746 26.6933 32.9868 26.6932 32.6914C26.6932 32.6914 26.6932 30.1905 27.7663 29.7975C28.8393 29.4045 30.253 32.227 31.7348 33.3703C32.2932 33.8342 33.0018 34.052 33.7106 33.9776H37.6792C37.6792 33.9776 39.7742 33.8705 38.7693 32.1913C38.0017 30.8228 37.0032 29.6122 35.8226 28.6185C33.3359 26.2069 33.6766 26.5999 36.6913 22.384C38.4967 19.8474 39.2462 18.2932 39.0248 17.5965C38.8033 16.8998 37.5429 17.0249 37.5429 17.0249H33.0975C32.8915 17.0074 32.685 17.0507 32.5013 17.1499C32.3048 17.2767 32.1501 17.4638 32.0585 17.6858C31.5719 18.9463 31.0028 20.1699 30.3552 21.3479C28.3454 24.9207 27.5619 25.0815 27.2212 24.9207C26.4888 24.4205 26.6762 22.8663 26.6762 21.7767C26.6762 18.3468 27.1531 16.8998 25.7054 16.5426C25.0219 16.3923 24.3257 16.3145 23.6274 16.3103C22.4116 16.1733 21.1821 16.2702 19.9995 16.5961C19.4715 16.8641 19.0968 17.4536 19.3352 17.4536C19.8365 17.5011 20.3006 17.7509 20.6297 18.1503C20.9289 18.8082 21.0804 19.5293 21.0725 20.2582C21.0725 20.2582 21.328 24.3133 20.4423 24.8135C19.8462 25.1708 19.0286 24.4741 17.2402 21.2407C16.6494 20.1183 16.1206 18.9612 15.6562 17.7752C15.5699 17.5752 15.4418 17.3982 15.2815 17.2571C14.9804 17.0815 14.6373 17.0009 14.2936 17.0249H10.325C10.325 17.0249 9.69483 17.0249 9.47341 17.3464C9.25199 17.668 9.47341 18.1146 9.47341 18.1146C9.47341 18.1146 12.8799 26.2605 16.5589 30.3513C17.4795 31.4528 18.6098 32.3397 19.8771 32.9551C21.1444 33.5704 22.5206 33.9005 23.9169 33.924V33.8883Z" fill="#00B5E7"/>
</svg>
