<svg width="50" height="50" viewBox="0 0 50 50" fill="none" xmlns="http://www.w3.org/2000/svg">
<path fill-rule="evenodd" clip-rule="evenodd" d="M25 2C20.451 2 16.0042 3.34893 12.2219 5.8762C8.43956 8.40347 5.4916 11.9956 3.75078 16.1983C2.00997 20.401 1.55449 25.0255 2.44195 29.4871C3.32941 33.9486 5.51995 38.0468 8.73655 41.2634C11.9532 44.4801 16.0514 46.6706 20.5129 47.5581C24.9745 48.4455 29.599 47.99 33.8017 46.2492C38.0044 44.5084 41.5965 41.5604 44.1238 37.7781C46.6511 33.9958 48 29.549 48 25C48 18.9 45.5768 13.0499 41.2635 8.73654C36.9501 4.42321 31.1 2 25 2ZM11.1108 4.21326C15.222 1.46622 20.0555 0 25 0C31.6304 0 37.9893 2.63392 42.6777 7.32233C47.3661 12.0107 50 18.3696 50 25C50 29.9445 48.5338 34.778 45.7867 38.8893C43.0397 43.0005 39.1352 46.2048 34.5671 48.097C29.9989 49.9892 24.9723 50.4843 20.1227 49.5196C15.2732 48.555 10.8187 46.174 7.32234 42.6777C3.82603 39.1813 1.44501 34.7268 0.480379 29.8773C-0.484251 25.0277 0.0108321 20.0011 1.90302 15.4329C3.79521 10.8648 6.99953 6.96029 11.1108 4.21326Z" fill="#00B5E7"/>
<path d="M32.7764 16.25H17.2272C15.9315 16.2947 14.7068 16.8389 13.8218 17.7634C12.9368 18.6879 12.4637 19.9172 12.5063 21.1815V29.9829C12.4733 30.616 12.5698 31.2491 12.7901 31.8455C13.0104 32.4418 13.3502 32.9894 13.7896 33.4564C14.2289 33.9233 14.7592 34.3003 15.3494 34.5653C15.9396 34.8303 16.5779 34.9781 17.2272 35H32.7764C34.0722 34.9553 35.2969 34.4111 36.1819 33.4866C37.0669 32.5621 37.54 31.3329 37.4973 30.0685V21.1815C37.54 19.9172 37.0669 18.6879 36.1819 17.7634C35.2969 16.8389 34.0722 16.2947 32.7764 16.25ZM21.7025 29.589V21.5753L28.3012 25.5993L21.7025 29.589Z" fill="#00B5E7"/>
</svg>
